<svg xmlns="http://www.w3.org/2000/svg" viewBox="0 0 437 437" style="fill: #fff;">
  <path d="m148.91,437c20.73-35.19,47.51-64.26,84.13-92.93.33-.28.69-.59,1.22-.95,11.96-8.33-.55-14.85-11.63-22.72-16.23-11.49-30.29-29.9-26.99-32.72,4.07-3.47,11.55,17.44,42.76,29.07,17.78,6.63,21.97,3.55,43.11-6.45.14-.05.27-.09.38-.15,6.24-3.76,12.53-7.39,18.96-10.73,34.24-17.88,62.58-44.13,73.71-64.14l.02.02c37.5-63.15,20.56-131.79-11.94-171.29-3.11-3.78-7.77-8.07-10.39-10.65-4.02,4.54-8.94,12.45-6.31,21.8,4.37,15.63,2.96,30.52-5.42,40.14,8.93,27.28-.31,58.67-21.06,76.63-7.07,4.55-14.27,8.13-22.52,10.1,0,0-6.72,1.57-13.77,1.68-23.21.35-68.76-28.25-83.15-36.31,0,0-38.17-21.37-87-21-17.05.13-62.22,3.7-113.02,49.34V54.68C0,24.48,24.43,0,54.68,0h327.63c30.2,0,54.68,24.43,54.68,54.68v327.63c0,30.2-24.43,54.68-54.68,54.68-77.8,0-155.6,0-233.4,0Zm3.85-214.13c-4.29,6.84-13.3,8.89-20.14,4.6-6.82-4.28-8.9-13.3-4.61-20.13,4.3-6.84,13.32-8.9,20.15-4.62,6.84,4.3,8.9,13.31,4.61,20.15h0Zm145.68-129.8c13.55,38.78,46.05,21.82,38.99-15.1-3.81-19.93,6.01-30.8,6.01-30.8-33.78-13-54.88,17.6-45,45.89Zm-189.12,167.33s14.62,32.43,3.56,75.9c-4.06,15.83-22.83,30.15-53.21,30.19-6.36-5.73-12.32-12.03-17.8-18.79,24.64,6.2,49.24,1.04,58.14-9.81,14.29-17.4,9.31-77.49,9.31-77.49Z"></path>
</svg>